<svg width="16" height="17" viewBox="0 0 16 17" fill="none" xmlns="http://www.w3.org/2000/svg">
<path d="M1.78125 7.70312C1.78125 8.45312 1.92188 9.16146 2.20312 9.82812C2.48438 10.4844 2.8724 11.0573 3.36719 11.5469C3.86198 12.0365 4.4375 12.4271 5.09375 12.7188C5.75 13 6.45312 13.1406 7.20312 13.1406C7.94271 13.1406 8.63281 13.0052 9.27344 12.7344C9.91406 12.4635 10.4792 12.0938 10.9688 11.625C10.9792 11.6146 10.9922 11.6016 11.0078 11.5859C11.0234 11.5703 11.0365 11.5573 11.0469 11.5469C11.0573 11.5365 11.0703 11.5234 11.0859 11.5078C11.1016 11.4922 11.1146 11.4792 11.125 11.4688C11.5938 10.9792 11.9635 10.4141 12.2344 9.77344C12.5052 9.13281 12.6406 8.44271 12.6406 7.70312C12.6406 6.95312 12.5 6.25 12.2188 5.59375C11.9271 4.9375 11.5365 4.36198 11.0469 3.86719C10.5573 3.3724 9.98438 2.98438 9.32812 2.70312C8.66146 2.42188 7.95312 2.28125 7.20312 2.28125C6.45312 2.28125 5.75 2.42188 5.09375 2.70312C4.4375 2.98438 3.86198 3.3724 3.36719 3.86719C2.8724 4.36198 2.48438 4.9375 2.20312 5.59375C1.92188 6.25 1.78125 6.95312 1.78125 7.70312ZM11.6406 13.3906C11.026 13.8698 10.3438 14.2448 9.59375 14.5156C8.84375 14.7865 8.04688 14.9219 7.20312 14.9219C6.21354 14.9219 5.28125 14.7344 4.40625 14.3594C3.53125 13.974 2.76823 13.4557 2.11719 12.8047C1.46615 12.1536 0.947917 11.3906 0.5625 10.5156C0.1875 9.64062 0 8.70312 0 7.70312C0 6.71354 0.1875 5.78125 0.5625 4.90625C0.947917 4.03125 1.46615 3.26823 2.11719 2.61719C2.76823 1.96615 3.53125 1.44792 4.40625 1.0625C5.28125 0.6875 6.21354 0.5 7.20312 0.5C8.20312 0.5 9.14062 0.6875 10.0156 1.0625C10.8906 1.44792 11.6536 1.96615 12.3047 2.61719C12.9557 3.26823 13.474 4.03125 13.8594 4.90625C14.2344 5.78125 14.4219 6.71354 14.4219 7.70312C14.4219 8.54688 14.2865 9.34375 14.0156 10.0938C13.7448 10.8438 13.3698 11.526 12.8906 12.1406L15.7344 14.9844C15.9115 15.1615 16 15.3724 16 15.6172C16 15.862 15.9115 16.0677 15.7344 16.2344C15.5677 16.4115 15.362 16.5 15.1172 16.5C14.8724 16.5 14.6615 16.4115 14.4844 16.2344L11.6406 13.3906Z" fill="white"/>
</svg>
